<svg xmlns="http://www.w3.org/2000/svg" width="990" height="1345" viewBox="0 0 990 1345">
<rect width="100%" height="100%" fill="#F5F8F6"/>
<text x="24" y="38" font-family="Arial" font-size="24" font-weight="900" fill="#0B6B3A">Admin dashboard screenshot proof</text>
<rect x="10" y="56" width="304" height="220" rx="18" fill="#fff" stroke="#E5ECE7"/>
<image href="admin/login.svg" x="18" y="64" width="288" height="200" preserveAspectRatio="xMidYMid meet"/>
<text x="18" y="290" font-family="Arial" font-size="13" font-weight="800" fill="#111827">login</text>
<rect x="340" y="56" width="304" height="220" rx="18" fill="#fff" stroke="#E5ECE7"/>
<image href="admin/dashboard.svg" x="348" y="64" width="288" height="200" preserveAspectRatio="xMidYMid meet"/>
<text x="348" y="290" font-family="Arial" font-size="13" font-weight="800" fill="#111827">dashboard</text>
<rect x="670" y="56" width="304" height="220" rx="18" fill="#fff" stroke="#E5ECE7"/>
<image href="admin/donors.svg" x="678" y="64" width="288" height="200" preserveAspectRatio="xMidYMid meet"/>
<text x="678" y="290" font-family="Arial" font-size="13" font-weight="800" fill="#111827">donors</text>
<rect x="10" y="311" width="304" height="220" rx="18" fill="#fff" stroke="#E5ECE7"/>
<image href="admin/contributions.svg" x="18" y="319" width="288" height="200" preserveAspectRatio="xMidYMid meet"/>
<text x="18" y="545" font-family="Arial" font-size="13" font-weight="800" fill="#111827">contributions</text>
<rect x="340" y="311" width="304" height="220" rx="18" fill="#fff" stroke="#E5ECE7"/>
<image href="admin/campaigns.svg" x="348" y="319" width="288" height="200" preserveAspectRatio="xMidYMid meet"/>
<text x="348" y="545" font-family="Arial" font-size="13" font-weight="800" fill="#111827">campaigns</text>
<rect x="670" y="311" width="304" height="220" rx="18" fill="#fff" stroke="#E5ECE7"/>
<image href="admin/projects.svg" x="678" y="319" width="288" height="200" preserveAspectRatio="xMidYMid meet"/>
<text x="678" y="545" font-family="Arial" font-size="13" font-weight="800" fill="#111827">projects</text>
<rect x="10" y="566" width="304" height="220" rx="18" fill="#fff" stroke="#E5ECE7"/>
<image href="admin/reminders.svg" x="18" y="574" width="288" height="200" preserveAspectRatio="xMidYMid meet"/>
<text x="18" y="800" font-family="Arial" font-size="13" font-weight="800" fill="#111827">reminders</text>
<rect x="340" y="566" width="304" height="220" rx="18" fill="#fff" stroke="#E5ECE7"/>
<image href="admin/collectors.svg" x="348" y="574" width="288" height="200" preserveAspectRatio="xMidYMid meet"/>
<text x="348" y="800" font-family="Arial" font-size="13" font-weight="800" fill="#111827">collectors</text>
<rect x="670" y="566" width="304" height="220" rx="18" fill="#fff" stroke="#E5ECE7"/>
<image href="admin/notifications.svg" x="678" y="574" width="288" height="200" preserveAspectRatio="xMidYMid meet"/>
<text x="678" y="800" font-family="Arial" font-size="13" font-weight="800" fill="#111827">notifications</text>
<rect x="10" y="821" width="304" height="220" rx="18" fill="#fff" stroke="#E5ECE7"/>
<image href="admin/ai-assistant.svg" x="18" y="829" width="288" height="200" preserveAspectRatio="xMidYMid meet"/>
<text x="18" y="1055" font-family="Arial" font-size="13" font-weight="800" fill="#111827">ai-assistant</text>
<rect x="340" y="821" width="304" height="220" rx="18" fill="#fff" stroke="#E5ECE7"/>
<image href="admin/namlef.svg" x="348" y="829" width="288" height="200" preserveAspectRatio="xMidYMid meet"/>
<text x="348" y="1055" font-family="Arial" font-size="13" font-weight="800" fill="#111827">namlef</text>
<rect x="670" y="821" width="304" height="220" rx="18" fill="#fff" stroke="#E5ECE7"/>
<image href="admin/impact.svg" x="678" y="829" width="288" height="200" preserveAspectRatio="xMidYMid meet"/>
<text x="678" y="1055" font-family="Arial" font-size="13" font-weight="800" fill="#111827">impact</text>
<rect x="10" y="1076" width="304" height="220" rx="18" fill="#fff" stroke="#E5ECE7"/>
<image href="admin/settings.svg" x="18" y="1084" width="288" height="200" preserveAspectRatio="xMidYMid meet"/>
<text x="18" y="1310" font-family="Arial" font-size="13" font-weight="800" fill="#111827">settings</text>
</svg>