<svg xmlns="http://www.w3.org/2000/svg" width="1440" height="1000" viewBox="0 0 1440 1000">
<defs><filter id="shadow"><feDropShadow dx="0" dy="8" stdDeviation="12" flood-color="#0F172A" flood-opacity="0.10"/></filter></defs>
<rect width="1440" height="1000" fill="#F5F8F6"/>
<rect width="280" height="1000" fill="#101827"/>
<text x="30" y="54" font-family="Arial, sans-serif" font-size="19" font-weight="900" fill="#fff" text-anchor="start">FAMILY</text>
<text x="30" y="78" font-family="Arial, sans-serif" font-size="19" font-weight="900" fill="#fff" text-anchor="start">PLEDGE</text>
<text x="30" y="106" font-family="Arial, sans-serif" font-size="13" font-weight="700" fill="#D6A437" text-anchor="start">Admin Dashboard</text>
<rect x="28" y="121" width="224" height="38" rx="10" fill="transparent" />
<text x="54" y="145" font-family="Arial, sans-serif" font-size="14" font-weight="800" fill="#C8D0DD" text-anchor="start">Dashboard</text>
<rect x="28" y="169" width="224" height="38" rx="10" fill="transparent" />
<text x="54" y="193" font-family="Arial, sans-serif" font-size="14" font-weight="800" fill="#C8D0DD" text-anchor="start">Donors</text>
<rect x="28" y="217" width="224" height="38" rx="10" fill="transparent" />
<text x="54" y="241" font-family="Arial, sans-serif" font-size="14" font-weight="800" fill="#C8D0DD" text-anchor="start">Contributions</text>
<rect x="28" y="265" width="224" height="38" rx="10" fill="transparent" />
<text x="54" y="289" font-family="Arial, sans-serif" font-size="14" font-weight="800" fill="#C8D0DD" text-anchor="start">Campaigns</text>
<rect x="28" y="313" width="224" height="38" rx="10" fill="#0B6B3A" />
<text x="54" y="337" font-family="Arial, sans-serif" font-size="14" font-weight="800" fill="#fff" text-anchor="start">Projects</text>
<rect x="28" y="361" width="224" height="38" rx="10" fill="transparent" />
<text x="54" y="385" font-family="Arial, sans-serif" font-size="14" font-weight="800" fill="#C8D0DD" text-anchor="start">Impact</text>
<rect x="28" y="409" width="224" height="38" rx="10" fill="transparent" />
<text x="54" y="433" font-family="Arial, sans-serif" font-size="14" font-weight="800" fill="#C8D0DD" text-anchor="start">Collectors</text>
<rect x="28" y="457" width="224" height="38" rx="10" fill="transparent" />
<text x="54" y="481" font-family="Arial, sans-serif" font-size="14" font-weight="800" fill="#C8D0DD" text-anchor="start">Notifications</text>
<rect x="28" y="505" width="224" height="38" rx="10" fill="transparent" />
<text x="54" y="529" font-family="Arial, sans-serif" font-size="14" font-weight="800" fill="#C8D0DD" text-anchor="start">Reminders</text>
<rect x="28" y="553" width="224" height="38" rx="10" fill="transparent" />
<text x="54" y="577" font-family="Arial, sans-serif" font-size="14" font-weight="800" fill="#C8D0DD" text-anchor="start">NAMLEF</text>
<rect x="28" y="601" width="224" height="38" rx="10" fill="transparent" />
<text x="54" y="625" font-family="Arial, sans-serif" font-size="14" font-weight="800" fill="#C8D0DD" text-anchor="start">AI Assistant</text>
<rect x="28" y="649" width="224" height="38" rx="10" fill="transparent" />
<text x="54" y="673" font-family="Arial, sans-serif" font-size="14" font-weight="800" fill="#C8D0DD" text-anchor="start">Settings</text>
<rect x="280" y="0" width="1160" height="82" rx="0" fill="#fff" />
<text x="320" y="52" font-family="Arial, sans-serif" font-size="19" font-weight="900" fill="#111827" text-anchor="start">Projects</text>
<text x="1260" y="52" font-family="Arial, sans-serif" font-size="13" font-weight="700" fill="#4B5563" text-anchor="start">June 20 – July 20, 2026</text>
<text x="320" y="145" font-family="Arial, sans-serif" font-size="34" font-weight="900" fill="#111827" text-anchor="start">Projects</text>
<text x="320" y="178" font-family="Arial, sans-serif" font-size="17" font-weight="600" fill="#4B5563" text-anchor="start">Clean admin workflow with clear actions and readable data.</text>
<rect x="320" y="225" width="205" height="120" rx="18" fill="#fff" filter="url(#shadow)"/>
<text x="344" y="265" font-family="Arial, sans-serif" font-size="13" font-weight="800" fill="#4B5563" text-anchor="start">Food</text>
<text x="344" y="315" font-family="Arial, sans-serif" font-size="34" font-weight="900" fill="#0B6B3A" text-anchor="start">Ready</text>
<rect x="560" y="225" width="205" height="120" rx="18" fill="#fff" filter="url(#shadow)"/>
<text x="584" y="265" font-family="Arial, sans-serif" font-size="13" font-weight="800" fill="#4B5563" text-anchor="start">Water</text>
<text x="584" y="315" font-family="Arial, sans-serif" font-size="34" font-weight="900" fill="#0B6B3A" text-anchor="start">Ready</text>
<rect x="800" y="225" width="205" height="120" rx="18" fill="#fff" filter="url(#shadow)"/>
<text x="824" y="265" font-family="Arial, sans-serif" font-size="13" font-weight="800" fill="#4B5563" text-anchor="start">Medical</text>
<text x="824" y="315" font-family="Arial, sans-serif" font-size="34" font-weight="900" fill="#D6A437" text-anchor="start">Ready</text>
<rect x="1040" y="225" width="205" height="120" rx="18" fill="#fff" filter="url(#shadow)"/>
<text x="1064" y="265" font-family="Arial, sans-serif" font-size="13" font-weight="800" fill="#4B5563" text-anchor="start">Reports</text>
<text x="1064" y="315" font-family="Arial, sans-serif" font-size="34" font-weight="900" fill="#0B6B3A" text-anchor="start">Live</text>
<rect x="320" y="390" width="450" height="320" rx="20" fill="#fff" filter="url(#shadow)"/>
<text x="350" y="430" font-family="Arial, sans-serif" font-size="18" font-weight="900" fill="#111827" text-anchor="start">Campaign Progress</text>
<text x="350" y="480" font-family="Arial, sans-serif" font-size="14" font-weight="800" fill="#111827" text-anchor="start">Gaza Emergency Relief</text>
<rect x="350" y="500" width="330" height="8" rx="4" fill="#E5E7EB" />
<rect x="350" y="500" width="138" height="8" rx="4" fill="#0B6B3A" />
<text x="705" y="508" font-family="Arial, sans-serif" font-size="12" font-weight="800" fill="#111827" text-anchor="start">42%</text>
<text x="350" y="555" font-family="Arial, sans-serif" font-size="14" font-weight="800" fill="#111827" text-anchor="start">Friday Challenge (This Friday)</text>
<rect x="350" y="575" width="330" height="8" rx="4" fill="#E5E7EB" />
<rect x="350" y="575" width="145" height="8" rx="4" fill="#0B6B3A" />
<text x="705" y="583" font-family="Arial, sans-serif" font-size="12" font-weight="800" fill="#111827" text-anchor="start">44%</text>
<text x="350" y="630" font-family="Arial, sans-serif" font-size="14" font-weight="800" fill="#111827" text-anchor="start">Emergency Appeal</text>
<rect x="350" y="650" width="330" height="8" rx="4" fill="#E5E7EB" />
<rect x="350" y="650" width="158" height="8" rx="4" fill="#D94A38" />
<text x="705" y="658" font-family="Arial, sans-serif" font-size="12" font-weight="800" fill="#111827" text-anchor="start">48%</text>
<rect x="810" y="390" width="245" height="320" rx="20" fill="#fff" filter="url(#shadow)"/>
<text x="840" y="430" font-family="Arial, sans-serif" font-size="18" font-weight="900" fill="#111827" text-anchor="start">Recent Activity</text>
<text x="840" y="480" font-family="Arial, sans-serif" font-size="14" font-weight="700" fill="#111827" text-anchor="start">New donor registered</text>
<text x="840" y="524" font-family="Arial, sans-serif" font-size="14" font-weight="700" fill="#111827" text-anchor="start">Contribution confirmed</text>
<text x="840" y="568" font-family="Arial, sans-serif" font-size="14" font-weight="700" fill="#111827" text-anchor="start">Collector joined</text>
<text x="840" y="612" font-family="Arial, sans-serif" font-size="14" font-weight="700" fill="#111827" text-anchor="start">Friday challenge updated</text>
<rect x="1090" y="390" width="300" height="320" rx="20" fill="#fff" filter="url(#shadow)"/>
<text x="1120" y="430" font-family="Arial, sans-serif" font-size="18" font-weight="900" fill="#111827" text-anchor="start">Admin Action</text>
<text x="1120" y="480" font-family="Arial, sans-serif" font-size="14" font-weight="700" fill="#111827" text-anchor="start">One-click review buttons</text>
<text x="1120" y="522" font-family="Arial, sans-serif" font-size="14" font-weight="700" fill="#111827" text-anchor="start">Bulk notification support</text>
<text x="1120" y="564" font-family="Arial, sans-serif" font-size="14" font-weight="700" fill="#111827" text-anchor="start">AI-assisted draft workflow</text>
<text x="1120" y="606" font-family="Arial, sans-serif" font-size="14" font-weight="700" fill="#111827" text-anchor="start">Payment tracking overview</text>
<rect x="320" y="760" width="1070" height="120" rx="20" fill="#fff" filter="url(#shadow)"/>
<text x="350" y="810" font-family="Arial, sans-serif" font-size="20" font-weight="900" fill="#0B6B3A" text-anchor="start">User-friendly check</text>
<text x="350" y="845" font-family="Arial, sans-serif" font-size="15" font-weight="700" fill="#4B5563" text-anchor="start">Clear labels, consistent navigation, large controls, and simplified admin decision points.</text>
</svg>