<svg xmlns="http://www.w3.org/2000/svg" width="430" height="932" viewBox="0 0 430 932">
<defs><filter id="shadow"><feDropShadow dx="0" dy="8" stdDeviation="10" flood-color="#0F172A" flood-opacity="0.12"/></filter><linearGradient id="hero" x1="0" y1="0" x2="1" y2="1"><stop stop-color="#0B6B3A"/><stop offset="1" stop-color="#064E2B"/></linearGradient></defs>
<rect width="430" height="932" fill="#111827"/>
<rect x="18" y="18" width="394" height="896" rx="44" fill="#F8FAF8" />
<rect x="176" y="30" width="78" height="6" rx="3" fill="#1F2937" opacity="0.45"/>
<text x="42" y="82" font-family="Arial, sans-serif" font-size="22" font-weight="700" fill="#111827" text-anchor="start">☰</text>
<text x="215" y="82" font-family="Arial, sans-serif" font-size="16" font-weight="800" fill="#111827" text-anchor="middle">Campaigns</text>
<text x="374" y="82" font-family="Arial, sans-serif" font-size="18" font-weight="700" fill="#111827" text-anchor="start">♢</text>
<rect x="42" y="108" width="44" height="30" rx="15" fill="#0B6B3A" />
<text x="64" y="128" font-family="Arial, sans-serif" font-size="11" font-weight="800" fill="#fff" text-anchor="middle">All</text>
<rect x="96" y="108" width="110" height="30" rx="15" fill="#F3F4F6" />
<text x="151" y="128" font-family="Arial, sans-serif" font-size="11" font-weight="800" fill="#111827" text-anchor="middle">Friday Challenge</text>
<rect x="216" y="108" width="86" height="30" rx="15" fill="#F3F4F6" />
<text x="259" y="128" font-family="Arial, sans-serif" font-size="11" font-weight="800" fill="#111827" text-anchor="middle">Emergency</text>
<rect x="42" y="160" width="346" height="150" rx="16" fill="#1F2937" />
<text x="58" y="198" font-family="Arial, sans-serif" font-size="18" font-weight="900" fill="#fff" text-anchor="start">Friday Challenge</text>
<text x="58" y="224" font-family="Arial, sans-serif" font-size="14" font-weight="700" fill="#fff" text-anchor="start">200 Donors Goal</text>
<text x="58" y="246" font-family="Arial, sans-serif" font-size="14" font-weight="700" fill="#fff" text-anchor="start">Every Friday</text>
<text x="58" y="358" font-family="Arial, sans-serif" font-size="32" font-weight="900" fill="#111827" text-anchor="start">87</text>
<text x="118" y="358" font-family="Arial, sans-serif" font-size="18" font-weight="700" fill="#111827" text-anchor="start">/ 200</text>
<text x="58" y="382" font-family="Arial, sans-serif" font-size="12" font-weight="600" fill="#4B5563" text-anchor="start">Donors today</text>
<rect x="58" y="392" width="300" height="8" rx="4" fill="#E5E7EB" />
<rect x="58" y="392" width="132" height="8" rx="4" fill="#0B6B3A" />
<rect x="42" y="438" width="346" height="108" rx="16" fill="#FFFFFF" />
<text x="58" y="468" font-family="Arial, sans-serif" font-size="13" font-weight="900" fill="#D94A38" text-anchor="start">Emergency Appeal</text>
<text x="58" y="494" font-family="Arial, sans-serif" font-size="16" font-weight="900" fill="#111827" text-anchor="start">Urgent Family Sponsorship</text>
<text x="58" y="520" font-family="Arial, sans-serif" font-size="12" font-weight="700" fill="#4B5563" text-anchor="start">$2,430 raised of $5,000</text>
<rect x="58" y="532" width="230" height="8" rx="4" fill="#E5E7EB" />
<rect x="58" y="532" width="110" height="8" rx="4" fill="#D94A38" />
<text x="330" y="540" font-family="Arial, sans-serif" font-size="11" font-weight="800" fill="#111827" text-anchor="start">48%</text>
<rect x="58" y="556" width="112" height="34" rx="10" fill="#D94A38" />
<text x="114" y="578" font-family="Arial, sans-serif" font-size="12" font-weight="800" fill="#fff" text-anchor="middle">Donate Now</text>
<rect x="42" y="628" width="346" height="96" rx="16" fill="#FFFFFF" />
<text x="58" y="658" font-family="Arial, sans-serif" font-size="12" font-weight="800" fill="#4B5563" text-anchor="start">Monthly Pledge Campaign</text>
<text x="58" y="684" font-family="Arial, sans-serif" font-size="15" font-weight="900" fill="#111827" text-anchor="start">Help Us Reach More Families</text>
<rect x="58" y="704" width="250" height="8" rx="4" fill="#E5E7EB" />
<rect x="58" y="704" width="105" height="8" rx="4" fill="#0B6B3A" />
<rect x="18" y="842" width="394" height="72" rx="0" fill="#FFFFFF" />
<text x="56" y="875" font-family="Arial, sans-serif" font-size="18" font-weight="800" fill="#6B7280" text-anchor="middle">⌂</text>
<text x="56" y="897" font-family="Arial, sans-serif" font-size="10" font-weight="700" fill="#6B7280" text-anchor="middle">Home</text>
<text x="134" y="875" font-family="Arial, sans-serif" font-size="18" font-weight="800" fill="#6B7280" text-anchor="middle">♡</text>
<text x="134" y="897" font-family="Arial, sans-serif" font-size="10" font-weight="700" fill="#6B7280" text-anchor="middle">Pledge</text>
<text x="212" y="875" font-family="Arial, sans-serif" font-size="18" font-weight="800" fill="#0B6B3A" text-anchor="middle">⚑</text>
<text x="212" y="897" font-family="Arial, sans-serif" font-size="10" font-weight="700" fill="#0B6B3A" text-anchor="middle">Campaigns</text>
<text x="290" y="875" font-family="Arial, sans-serif" font-size="18" font-weight="800" fill="#6B7280" text-anchor="middle">◫</text>
<text x="290" y="897" font-family="Arial, sans-serif" font-size="10" font-weight="700" fill="#6B7280" text-anchor="middle">Updates</text>
<text x="368" y="875" font-family="Arial, sans-serif" font-size="18" font-weight="800" fill="#6B7280" text-anchor="middle">♙</text>
<text x="368" y="897" font-family="Arial, sans-serif" font-size="10" font-weight="700" fill="#6B7280" text-anchor="middle">Profile</text>
</svg>