<svg xmlns="http://www.w3.org/2000/svg" width="430" height="932" viewBox="0 0 430 932">
  <defs>
    <linearGradient id="bg" x1="0" y1="0" x2="1" y2="1"><stop stop-color="#F8FAF5"/><stop offset="1" stop-color="#EAF5EE"/></linearGradient>
    <filter id="shadow" x="-20%" y="-20%" width="140%" height="140%"><feDropShadow dx="0" dy="7" stdDeviation="9" flood-color="#0F172A" flood-opacity="0.13"/></filter>
  </defs>
  <rect width="430" height="932" fill="#111827"/>
  <rect x="18" y="18" width="394" height="896" rx="44" fill="url(#bg)"/>
  <rect x="176" y="30" width="78" height="6" rx="3" fill="#1F2937" opacity="0.45"/>
  <rect x="18" y="18" width="394" height="132" rx="44" fill="#0B6B3A"/>
  <text x="44" y="72" font-size="22" font-weight="800" fill="#FFFFFF" font-family="Arial">Family Pledge</text>
  <text x="44" y="100" font-size="13" fill="#F6D77A" font-family="Arial">Normal user mobile screen</text>
  <text x="44" y="132" font-size="12" fill="#D8E8DD" font-family="Arial">/screens/namlef</text>
  <text x="44" y="198" font-size="30" font-weight="800" fill="#0F172A" font-family="Arial">NAMLEF</text>
  <text x="44" y="226" font-size="15" fill="#475569" font-family="Arial">Scholar/community content</text>
  <rect x="44" y="262" width="342" height="126" rx="24" fill="#FFFFFF" filter="url(#shadow)"/>
  <circle cx="82" cy="313" r="22" fill="#ECFDF5"/>
  <text x="74" y="321" font-size="22" fill="#0B6B3A" font-family="Arial">❤</text>
  <text x="120" y="305" font-size="14" fill="#64748B" font-family="Arial">Primary user action</text>
  <text x="120" y="338" font-size="22" font-weight="800" fill="#0B6B3A" font-family="Arial">Videos / audio</text>
  <rect x="44" y="416" width="342" height="126" rx="24" fill="#FFFFFF" filter="url(#shadow)"/>
  <circle cx="82" cy="467" r="22" fill="#FFFBEB"/>
  <text x="74" y="475" font-size="22" fill="#D6A437" font-family="Arial">✦</text>
  <text x="120" y="459" font-size="14" fill="#64748B" font-family="Arial">Feature highlight</text>
  <text x="120" y="492" font-size="22" font-weight="800" fill="#92400E" font-family="Arial">Featured message</text>
  <rect x="44" y="570" width="342" height="170" rx="24" fill="#FFFFFF" filter="url(#shadow)"/>
  <text x="70" y="616" font-size="18" font-weight="800" fill="#111827" font-family="Arial">Why this matters</text>
  <text x="70" y="652" font-size="14" fill="#475569" font-family="Arial">Faith and organization context</text>
  <text x="70" y="682" font-size="14" fill="#475569" font-family="Arial">Designed for quick, clear donor action</text>
  <text x="70" y="712" font-size="14" fill="#475569" font-family="Arial">without admin access.</text>
  <rect x="44" y="780" width="342" height="70" rx="24" fill="#0B6B3A"/>
  <text x="86" y="824" font-size="17" font-weight="800" fill="#FFFFFF" font-family="Arial">Open in Expo route: /screens/namlef</text>
  <circle cx="112" cy="882" r="5" fill="#0B6B3A"/><circle cx="166" cy="882" r="5" fill="#CBD5E1"/><circle cx="220" cy="882" r="5" fill="#CBD5E1"/><circle cx="274" cy="882" r="5" fill="#CBD5E1"/><circle cx="328" cy="882" r="5" fill="#CBD5E1"/>
</svg>