<svg xmlns="http://www.w3.org/2000/svg" width="430" height="932" viewBox="0 0 430 932">
  <defs>
    <linearGradient id="bg" x1="0" y1="0" x2="1" y2="1"><stop stop-color="#F8FAF5"/><stop offset="1" stop-color="#EEF6F1"/></linearGradient>
    <filter id="shadow" x="-20%" y="-20%" width="140%" height="140%"><feDropShadow dx="0" dy="8" stdDeviation="12" flood-color="#0F172A" flood-opacity="0.12"/></filter>
  </defs>
  <rect width="430" height="932" fill="#111827"/>
  <rect x="18" y="18" width="394" height="896" rx="44" fill="url(#bg)"/>
  <rect x="176" y="30" width="78" height="6" rx="3" fill="#1F2937" opacity="0.45"/>

  <rect x="42" y="70" width="164" height="58" rx="22" fill="#FFFFFF" filter="url(#shadow)"/>
  <circle cx="72" cy="99" r="18" fill="#E8F3EC"/>
  <text x="64" y="106" font-size="20" fill="#064E2B" font-family="Arial">❤</text>
  <text x="98" y="94" font-size="13" font-weight="800" fill="#111827" font-family="Arial">Free to Join</text>
  <text x="98" y="112" font-size="12" fill="#374151" font-family="Arial">$10 / month</text>

  <rect x="224" y="70" width="164" height="58" rx="22" fill="#FFFFFF" filter="url(#shadow)"/>
  <circle cx="254" cy="99" r="18" fill="#E8F3EC"/>
  <text x="246" y="106" font-size="20" fill="#064E2B" font-family="Arial">●</text>
  <text x="280" y="94" font-size="13" font-weight="800" fill="#111827" font-family="Arial">100% Impact</text>
  <text x="280" y="112" font-size="12" fill="#374151" font-family="Arial">For Gaza Relief</text>

  <rect x="42" y="158" width="66" height="66" rx="20" fill="#EEF7EF" stroke="#0B6B3A" stroke-width="2"/>
  <text x="58" y="199" font-size="34" fill="#0B6B3A" font-family="Arial">⌂</text>
  <text x="122" y="185" font-size="30" font-weight="900" fill="#0B6B3A" font-family="Arial">FAMILY</text>
  <text x="122" y="218" font-size="30" font-weight="900" fill="#111827" font-family="Arial">PLEDGE</text>
  <text x="122" y="248" font-size="14" font-weight="600" fill="#111827" font-family="Arial">A initiative under</text>
  <text x="122" y="276" font-size="22" font-weight="900" fill="#0B6B3A" font-family="Arial">NAMLEF</text>

  <text x="42" y="360" font-size="36" font-weight="900" fill="#0B6B3A" font-family="Arial">Small Pledge,</text>
  <text x="42" y="405" font-size="36" font-weight="900" fill="#0B6B3A" font-family="Arial">Big Impact</text>
  <text x="42" y="460" font-size="17" font-weight="500" fill="#111827" font-family="Arial">Your monthly $10 pledge helps</text>
  <text x="42" y="488" font-size="17" font-weight="500" fill="#111827" font-family="Arial">provide food, water, clothing,</text>
  <text x="42" y="516" font-size="17" font-weight="500" fill="#111827" font-family="Arial">emergency cash assistance</text>
  <text x="42" y="544" font-size="17" font-weight="500" fill="#111827" font-family="Arial">and hope to families in Gaza.</text>

  <rect x="42" y="594" width="346" height="54" rx="10" fill="#0B6B3A"/>
  <text x="160" y="628" font-size="16" font-weight="900" fill="#FFFFFF" font-family="Arial">Sign Your Pledge</text>
  <rect x="42" y="666" width="346" height="54" rx="10" fill="#FFFFFF" fill-opacity="0.75" stroke="#0B6B3A"/>
  <text x="126" y="700" font-size="15" font-weight="800" fill="#0B6B3A" font-family="Arial">I Already Have an Account</text>

  <rect x="42" y="748" width="346" height="128" rx="28" fill="#E8EFEA" stroke="#DCE8DE"/>
  <circle cx="216" cy="798" r="42" fill="#D6A437"/>
  <path d="M132 856 Q215 774 298 856 Z" fill="#D6A437"/>
  <rect x="118" y="848" width="194" height="20" rx="8" fill="#F6E7B2"/>
  <rect x="68" y="774" width="28" height="94" rx="14" fill="#F4F1E4"/>
  <path d="M58 780 Q82 738 106 780 Z" fill="#D6A437"/>
  <rect x="42" y="846" width="346" height="30" fill="#0B6B3A" opacity="0.18"/>
  <text x="82" y="868" font-size="12" font-weight="800" fill="#064E2B" font-family="Arial">Gaza Relief • Transparent Impact • Daily Reminders</text>
</svg>
